<?xml version="1.0" encoding="UTF-8"?>
<svg fill="#FFFFFF" width="100pt" height="100pt" version="1.1" viewBox="0 0 100 100" xmlns="http://www.w3.org/2000/svg">
 <g>
  <path d="m91.02 60.516c0-0.011719 0-0.023437-0.003906-0.035156-0.015625-0.125-0.046875-0.24609-0.085937-0.36328-0.011719-0.03125-0.019532-0.0625-0.03125-0.09375-0.042969-0.12109-0.09375-0.23828-0.16016-0.35156 0-0.003906 0-0.003906-0.003906-0.007813-0.003906-0.007812-0.011719-0.015624-0.015625-0.023437-0.0625-0.10156-0.13281-0.19922-0.21094-0.28906-0.019531-0.023437-0.042968-0.050781-0.0625-0.074218-0.082031-0.089844-0.17187-0.17188-0.26953-0.25-0.023437-0.015625-0.046875-0.03125-0.070312-0.046875-0.050781-0.035157-0.097657-0.070313-0.15234-0.10156l-9.8945-5.7891c-0.68359-0.39844-1.5273-0.39844-2.207 0l-9.8945 5.7852c-0.054687 0.03125-0.10938 0.070312-0.16016 0.10938-0.019531 0.015625-0.039063 0.027344-0.058594 0.039063-0.10156 0.074218-0.19141 0.16016-0.27344 0.25-0.019532 0.023437-0.039063 0.046874-0.0625 0.070312-0.078125 0.09375-0.15234 0.1875-0.21484 0.29297-0.003906 0.007812-0.011719 0.015625-0.015625 0.023437 0 0.003906 0 0.003906-0.003906 0.007813-0.0625 0.10938-0.11719 0.23047-0.16016 0.35156-0.011718 0.03125-0.023437 0.0625-0.03125 0.09375-0.035156 0.11719-0.066406 0.23828-0.085937 0.36328 0 0.011719 0 0.023438-0.003906 0.035157-0.011719 0.082031-0.015625 0.16797-0.015625 0.25391v10.273l-4.6992 2.5547c0.074219 0.046875 0.14844 0.09375 0.21875 0.14453l0.15234 0.10938c0.1875 0.14453 0.375 0.3125 0.54688 0.5 0.03125 0.035156 0.078125 0.085938 0.12109 0.13672 0.125 0.14453 0.23437 0.28906 0.33203 0.4375l0.042969 0.054687 0.17578 0.31641c0.085937 0.16406 0.16406 0.34375 0.23438 0.53906 0.027344 0.070313 0.046875 0.13281 0.066406 0.19531 0.078125 0.24609 0.13281 0.48438 0.16406 0.71875l0.015626 0.15234c0.015624 0.14062 0.023437 0.28516 0.023437 0.42969v0.10938l4.75-2.582 8.8281 5.1641c0.070312 0.042969 0.14453 0.078125 0.21875 0.10938 0.015625 0.007813 0.027344 0.015625 0.039062 0.019532 0.11719 0.046874 0.23438 0.082031 0.35547 0.10937 0.03125 0.007813 0.066407 0.015626 0.097657 0.019532 0.12891 0.023437 0.25781 0.039062 0.38672 0.039062s0.25781-0.015625 0.38672-0.039062c0.035156-0.007813 0.066406-0.011719 0.097656-0.019532 0.12109-0.027343 0.24219-0.0625 0.35547-0.10937 0.011719-0.003907 0.023438-0.011719 0.035156-0.019532 0.074219-0.03125 0.15234-0.070312 0.22266-0.10938l9.8945-5.7891c0.67188-0.39062 1.082-1.1094 1.082-1.8867l0.019531-11.574c0.003906-0.085937-0.003906-0.16797-0.015625-0.25391zm-12.066-3 5.5625 3.2539-5.5625 3.2539-5.5625-3.2539zm-7.707 7.0664 5.5195 3.2266v6.5039l-5.5195-3.2266zm9.8945 9.7344v-6.5039l5.5195-3.2266v6.5039z"/>
  <path d="m62.066 77.07c0-0.011718 0-0.023437-0.003906-0.035156-0.015625-0.125-0.046875-0.24609-0.085938-0.36328-0.011718-0.03125-0.019531-0.0625-0.03125-0.09375-0.042968-0.12109-0.097656-0.23828-0.16016-0.35156 0 0 0-0.003906-0.003906-0.007812-0.003906-0.007812-0.011719-0.011719-0.015625-0.019531-0.0625-0.10547-0.13281-0.19922-0.21484-0.29297-0.019531-0.023438-0.039062-0.046875-0.0625-0.070312-0.082031-0.089844-0.17188-0.17188-0.27344-0.25-0.019532-0.015626-0.042969-0.027344-0.0625-0.042969-0.050782-0.035157-0.10156-0.074219-0.15625-0.10547l-9.8945-5.7852c-0.68359-0.39844-1.5273-0.39844-2.207 0l-9.8945 5.7852c-0.054688 0.03125-0.10938 0.070312-0.16016 0.10938-0.019532 0.015625-0.039063 0.027344-0.058594 0.039063-0.10156 0.078124-0.19141 0.16016-0.27344 0.25-0.019531 0.023437-0.039062 0.046874-0.058593 0.070312-0.078125 0.09375-0.15234 0.19141-0.21484 0.29297-0.003906 0.007812-0.011719 0.011719-0.015625 0.019531 0 0 0 0.003906-0.003906 0.007812-0.066406 0.11328-0.11719 0.23047-0.16016 0.35156-0.011719 0.03125-0.023438 0.0625-0.03125 0.09375-0.035157 0.11719-0.066407 0.23828-0.085938 0.36328 0 0.011719 0 0.023438-0.003906 0.035156-0.011719 0.085938-0.015625 0.17188-0.015625 0.25781v11.574c0 0.77734 0.41406 1.4961 1.082 1.8867l9.8945 5.7852c0.074219 0.042969 0.14844 0.078125 0.22266 0.10938 0.011718 0.003906 0.023437 0.011718 0.035156 0.019531 0.11719 0.046875 0.23438 0.082031 0.35547 0.10938 0.03125 0.007812 0.066407 0.015625 0.097657 0.019531 0.13672 0.027344 0.26562 0.042969 0.39453 0.042969s0.25781-0.015625 0.38672-0.039062c0.035156-0.007813 0.066406-0.011719 0.097656-0.019532 0.12109-0.027344 0.24219-0.0625 0.35547-0.10938 0.011718-0.003906 0.023437-0.011719 0.035156-0.019531 0.074219-0.03125 0.15234-0.070312 0.22266-0.10938l9.8945-5.7852c0.67187-0.39062 1.082-1.1094 1.082-1.8867v-11.574c0.007812-0.089843 0-0.17578-0.007813-0.26172zm-12.066-2.9961 5.5625 3.2539-5.5625 3.2539-5.5625-3.2539zm-7.707 7.0664 5.5195 3.2305v6.5039l-5.5195-3.2266zm9.8945 9.7344v-6.5039l5.5195-3.2305v6.5039z"/>
  <path d="m33.129 71.043v-10.273c0-0.085937-0.007812-0.17188-0.015625-0.25391 0-0.011719 0-0.023437-0.003906-0.035156-0.015625-0.125-0.046875-0.24609-0.085937-0.36328-0.011719-0.03125-0.019532-0.0625-0.03125-0.09375-0.042969-0.12109-0.09375-0.23828-0.16016-0.35156 0-0.003906 0-0.003906-0.003906-0.007813-0.003906-0.007812-0.011719-0.015624-0.015625-0.023437-0.0625-0.10156-0.13281-0.19922-0.21094-0.28906-0.019531-0.023437-0.042968-0.050781-0.0625-0.074218-0.082031-0.089844-0.17187-0.17188-0.26953-0.25-0.023437-0.015625-0.046875-0.03125-0.070312-0.046875-0.050781-0.035157-0.097657-0.070313-0.15234-0.10156l-9.8945-5.7852c-0.68359-0.39844-1.5273-0.39844-2.207 0l-9.8945 5.7852c-0.054687 0.03125-0.10547 0.070313-0.16016 0.10938-0.019531 0.015625-0.042969 0.027344-0.0625 0.042969-0.097656 0.074219-0.19141 0.16016-0.27344 0.25-0.019532 0.023438-0.039063 0.046875-0.0625 0.070312-0.078126 0.09375-0.15234 0.1875-0.21094 0.29297-0.003906 0.007813-0.011719 0.015625-0.015625 0.023438 0 0.003906 0 0.003906-0.003906 0.007812-0.0625 0.10938-0.11719 0.23047-0.16016 0.35156-0.011718 0.03125-0.023437 0.0625-0.03125 0.09375-0.035156 0.11719-0.066406 0.23828-0.085937 0.36328 0 0.011719 0 0.023437-0.003906 0.035156-0.011719 0.082031-0.015625 0.16797-0.015625 0.25391v11.574c0 0.77734 0.41406 1.4961 1.082 1.8867l9.8945 5.7852c0.070313 0.042969 0.14453 0.078125 0.21875 0.10938 0.015625 0.007813 0.027344 0.015625 0.039063 0.019532 0.11719 0.046874 0.23438 0.082031 0.35547 0.10937 0.03125 0.007813 0.066406 0.015626 0.097656 0.019532 0.12891 0.023437 0.25781 0.039062 0.38672 0.039062 0.12891 0 0.25781-0.015625 0.38672-0.039062 0.035157-0.007813 0.066407-0.011719 0.097657-0.019532 0.12109-0.027343 0.23828-0.0625 0.35547-0.10937 0.015625-0.003907 0.027344-0.015626 0.039063-0.019532 0.074219-0.03125 0.14844-0.066406 0.21875-0.10938l8.8281-5.1641 4.75 2.582v-0.10938c0-0.14453 0.007812-0.28516 0.023437-0.42578l0.015625-0.15625c0.03125-0.23438 0.085938-0.46875 0.16406-0.72266 0.015625-0.054688 0.039062-0.11719 0.0625-0.17969 0.070312-0.19922 0.14844-0.37891 0.23828-0.54688l0.21484-0.35938c0.10547-0.16406 0.21875-0.3125 0.33984-0.45312 0.042968-0.050781 0.078124-0.09375 0.11719-0.13672 0.17188-0.1875 0.35938-0.35547 0.55469-0.50391l0.13281-0.09375c0.085937-0.0625 0.15625-0.10547 0.23047-0.15234zm-12.082-13.527 5.5625 3.2539-5.5625 3.2539-5.5625-3.2539zm-7.707 7.0664 5.5195 3.2266v6.5039l-5.5195-3.2266zm9.8945 9.7344v-6.5039l5.5195-3.2266v6.5039z"/>
  <path d="m62.082 21.375v-10.277c0-0.085937-0.007812-0.17188-0.015625-0.25391v-0.03125c-0.015625-0.125-0.046875-0.24609-0.085937-0.36328-0.011719-0.03125-0.019531-0.0625-0.03125-0.09375-0.042969-0.12109-0.097657-0.24219-0.16016-0.35156 0 0 0-0.003906-0.003906-0.007812-0.003906-0.007813-0.011718-0.011719-0.015625-0.019532-0.0625-0.10547-0.13672-0.20312-0.21484-0.29297-0.019532-0.023438-0.039063-0.046875-0.0625-0.070313-0.082032-0.089843-0.17188-0.17188-0.27344-0.25-0.023438-0.015625-0.046875-0.03125-0.070312-0.046875-0.050782-0.035156-0.097657-0.074218-0.15234-0.10547l-9.8906-5.7852c-0.68359-0.39844-1.5273-0.39844-2.207 0l-9.8945 5.7852c-0.054687 0.03125-0.10156 0.066406-0.15234 0.10156-0.023437 0.015625-0.046874 0.03125-0.070312 0.046875-0.097656 0.074219-0.1875 0.15625-0.26953 0.24609-0.023438 0.023437-0.042969 0.046875-0.0625 0.074219-0.078125 0.09375-0.15234 0.1875-0.21484 0.29297-0.003906 0.007813-0.011719 0.011719-0.015625 0.019532 0 0 0 0.003906-0.003906 0.007812-0.066406 0.11328-0.11719 0.23047-0.16016 0.35156-0.011719 0.03125-0.023438 0.0625-0.03125 0.09375-0.039063 0.11719-0.066407 0.23828-0.085938 0.36328v0.03125c-0.011719 0.085937-0.015625 0.16797-0.015625 0.25391v10.273l-4.6992 2.5547c0.082032 0.050781 0.16797 0.10547 0.24609 0.16016 0.007812 0.003907 0.0625 0.039063 0.11328 0.082031 0.19922 0.15234 0.38672 0.32422 0.5625 0.50781 0.039063 0.039063 0.074219 0.082031 0.11328 0.12891 0.12891 0.15234 0.24219 0.30078 0.34375 0.45312l0.17188 0.27734c0.10937 0.19531 0.20312 0.40234 0.28516 0.63281 0.019531 0.054688 0.042968 0.125 0.066406 0.19531 0.074219 0.23828 0.12891 0.48047 0.16406 0.71875l0.015626 0.16016c0.015624 0.14062 0.023437 0.27734 0.023437 0.41797v0.10938l4.75-2.582 7.7344 4.5312v4.9219c1.3516-0.78125 3.0234-0.78125 4.375 0v-4.9219l7.7461-4.5312 4.75 2.582v-0.10938c0-0.14062 0.007812-0.27734 0.019531-0.41406l0.011719-0.13672c0.035156-0.26562 0.089844-0.5 0.16797-0.75781 0.019532-0.066406 0.042969-0.13281 0.066407-0.19531 0.078125-0.21484 0.17188-0.42188 0.27734-0.61719l0.17188-0.27734c0.10547-0.16016 0.21484-0.30469 0.33594-0.44531 0.042969-0.050781 0.078125-0.09375 0.11719-0.13281 0.17578-0.19141 0.36328-0.35938 0.55859-0.50781l0.12891-0.089844c0.082032-0.058593 0.16016-0.10547 0.23438-0.15625zm-12.082-13.527 5.5625 3.2539-5.5625 3.25-5.5625-3.25zm-7.707 7.0664 5.5195 3.2266v6.5078l-5.5195-3.2266zm9.8945 9.7344v-6.5078l5.5195-3.2266v6.5078z"/>
  <path d="m35.754 43.785 0.015625-0.14453c0.03125-0.23438 0.085938-0.47266 0.16406-0.73047 0.023437-0.070312 0.042968-0.13281 0.066406-0.19531 0.070312-0.19141 0.14453-0.36719 0.23438-0.53516l0.21875-0.36719c0.097656-0.14844 0.20703-0.29688 0.33203-0.44141 0.046875-0.058594 0.089844-0.10547 0.13281-0.15234 0.16016-0.17188 0.34766-0.34375 0.53906-0.48828l0.13672-0.097657c0.085938-0.0625 0.15625-0.10547 0.23047-0.15234l-4.6992-2.5547 0.003906-10.27c0-0.085938-0.007812-0.17188-0.015625-0.25781v-0.03125c-0.015625-0.125-0.046875-0.24609-0.085937-0.36719-0.011719-0.03125-0.019532-0.0625-0.03125-0.09375-0.042969-0.12109-0.097656-0.24219-0.16016-0.35547 0 0 0-0.003906-0.003907-0.003906-0.003906-0.007813-0.007812-0.011719-0.011719-0.015625-0.0625-0.10547-0.13672-0.20312-0.21875-0.29688-0.019531-0.023437-0.039062-0.046875-0.058593-0.066406-0.085938-0.089844-0.17578-0.17578-0.27734-0.25-0.019531-0.015625-0.039063-0.027344-0.058594-0.039063-0.054687-0.039062-0.10547-0.078125-0.16016-0.10938l-9.8984-5.7891c-0.68359-0.39844-1.5273-0.39844-2.207 0l-9.8945 5.7852c-0.058594 0.035156-0.10938 0.074219-0.16406 0.10938-0.015624 0.011719-0.035156 0.023438-0.054687 0.035156-0.10156 0.078125-0.19141 0.16016-0.27734 0.25391-0.019531 0.019532-0.039062 0.042969-0.058593 0.066407-0.082032 0.09375-0.15625 0.19531-0.21875 0.30078-0.003907 0.007812-0.007813 0.011719-0.011719 0.015625 0 0 0 0.003906-0.003907 0.003906-0.066406 0.11328-0.11719 0.23047-0.16016 0.35547-0.011718 0.03125-0.019531 0.0625-0.03125 0.09375-0.039062 0.11719-0.066406 0.24219-0.085937 0.36719v0.03125c-0.011719 0.085937-0.015625 0.17187-0.015625 0.25781v11.574c0 0.77734 0.41406 1.4961 1.082 1.8867l8.8125 5.1523v4.9258c1.3516-0.78125 3.0234-0.78125 4.375 0v-4.9258l7.7461-4.5312 4.75 2.582v-0.10937c0-0.14063 0.007812-0.28516 0.023437-0.42578zm-16.895-2.582-5.5234-3.2266v-6.5078l5.5195 3.2305zm2.1875-10.293-5.5625-3.2539 5.5625-3.2539 5.5625 3.2539zm7.707 7.0664-5.5195 3.2266v-6.5039l5.5195-3.2266z"/>
  <path d="m62.082 54.488v-10.273c0-0.085938-0.007812-0.17188-0.015625-0.25391 0-0.011719 0-0.023438-0.003906-0.035157-0.015625-0.125-0.046875-0.24609-0.085938-0.36328-0.011718-0.03125-0.019531-0.0625-0.03125-0.09375-0.042968-0.12109-0.09375-0.23828-0.16016-0.35156 0-0.003907 0-0.003907-0.003906-0.007813-0.003906-0.007813-0.011719-0.015625-0.015625-0.023437-0.0625-0.10156-0.13281-0.19922-0.21094-0.29297-0.019532-0.023438-0.039063-0.046875-0.0625-0.070313-0.082032-0.089844-0.17188-0.17188-0.27344-0.25-0.019531-0.015625-0.042969-0.03125-0.066406-0.046875-0.050782-0.035156-0.10156-0.074219-0.15625-0.10547l-9.8945-5.7852c-0.68359-0.39844-1.5273-0.39844-2.207 0l-9.8945 5.7891c-0.058594 0.03125-0.10938 0.070312-0.16016 0.10938-0.019532 0.011718-0.039063 0.023437-0.058594 0.039062-0.10156 0.078125-0.19141 0.16016-0.27734 0.25-0.019531 0.023438-0.039062 0.046875-0.058594 0.070313-0.078124 0.09375-0.15234 0.1875-0.21484 0.29297-0.003907 0.007812-0.011719 0.015624-0.015625 0.023437 0 0.003906 0 0.003906-0.003906 0.007813-0.0625 0.10937-0.11719 0.23047-0.16016 0.35156-0.011719 0.03125-0.023437 0.0625-0.03125 0.09375-0.035156 0.11719-0.066406 0.23828-0.085937 0.36328 0 0.011719 0 0.023438-0.003906 0.035157-0.011719 0.082031-0.015626 0.16797-0.015626 0.25391v10.273l-4.6992 2.5547c0.070312 0.042969 0.14453 0.089843 0.21094 0.14062l0.17969 0.12891c0.16797 0.12891 0.34766 0.29297 0.52734 0.48047 0.039063 0.042969 0.078126 0.089843 0.12109 0.13672 0.12891 0.14844 0.23828 0.29687 0.33594 0.44531l0.17188 0.28125c0.10547 0.19141 0.19922 0.39453 0.28125 0.62109 0.023437 0.070312 0.042969 0.12891 0.0625 0.1875 0.082031 0.25781 0.13672 0.49609 0.16797 0.73047l0.015624 0.15625c0.015626 0.15234 0.023438 0.28516 0.023438 0.41797v0.10938l4.75-2.582 7.7461 4.5312v4.9219c1.3516-0.78125 3.0234-0.78125 4.375 0v-4.9219l7.7461-4.5312 4.75 2.582v-0.10938c0-0.14453 0.011718-0.28125 0.023437-0.42578l0.011719-0.14844c0.03125-0.23047 0.085937-0.47656 0.16797-0.72656l0.054688-0.17969c0.085938-0.23828 0.17969-0.44531 0.28906-0.63672l0.16406-0.26953c0.09375-0.14453 0.21094-0.30078 0.34375-0.44922l0.11328-0.13281c0.17969-0.19531 0.36719-0.36328 0.5625-0.51172l0.13672-0.10156c0.085937-0.058594 0.15625-0.10156 0.22656-0.14844zm-12.082-13.527 5.5625 3.2539-5.5625 3.25-5.5625-3.2539zm-7.707 7.0664 5.5195 3.2266v6.5039l-5.5195-3.2266zm9.8945 9.7344v-6.5078l5.5195-3.2266v6.5039z"/>
  <path d="m91.02 27.398v-0.03125c-0.015625-0.125-0.046875-0.24609-0.085937-0.36719-0.007813-0.03125-0.019532-0.0625-0.03125-0.089844-0.042969-0.12109-0.097656-0.24219-0.16016-0.35547 0 0 0-0.003907-0.003907-0.003907-0.003906-0.007812-0.007812-0.011719-0.011719-0.015625-0.0625-0.10547-0.13672-0.20312-0.21875-0.29688-0.019531-0.023437-0.039062-0.046875-0.058593-0.070312-0.085938-0.089844-0.17578-0.17578-0.27344-0.25-0.019531-0.015625-0.042969-0.027344-0.0625-0.042969-0.050781-0.035156-0.10156-0.074219-0.15625-0.10938l-9.8945-5.7852c-0.68359-0.39844-1.5273-0.39844-2.207 0l-9.8945 5.7852c-0.058594 0.035156-0.10938 0.074219-0.16406 0.10938-0.015625 0.011719-0.035156 0.023438-0.054687 0.035156-0.10156 0.078125-0.19141 0.16016-0.27734 0.25391-0.019532 0.019532-0.039063 0.042969-0.058594 0.066407-0.082031 0.09375-0.15625 0.19141-0.21875 0.30078-0.003906 0.007812-0.007812 0.011719-0.011719 0.015625 0 0 0 0.003906-0.003906 0.003906-0.066406 0.11328-0.11719 0.23047-0.16016 0.35547-0.011719 0.03125-0.019531 0.0625-0.03125 0.09375-0.039063 0.11719-0.066407 0.23828-0.085938 0.36719v0.03125c-0.011719 0.085937-0.015625 0.17187-0.015625 0.25781v10.273l-4.6992 2.5547c0.074218 0.046875 0.14453 0.09375 0.21484 0.14062l0.14844 0.10547c0.19922 0.15234 0.375 0.3125 0.55078 0.5 0.046875 0.046875 0.089844 0.10156 0.13281 0.15234 0.11719 0.13672 0.22266 0.27734 0.32031 0.42188l0.22266 0.37109c0.085938 0.16797 0.16406 0.34375 0.23438 0.53906 0.023438 0.070312 0.042969 0.12891 0.0625 0.1875 0.082032 0.25781 0.13672 0.49609 0.16797 0.73047l0.015625 0.14063c0.015625 0.13672 0.023438 0.28516 0.023438 0.43359v0.10938l4.75-2.582 7.7461 4.5312v4.9258c1.3516-0.77734 3.0234-0.77734 4.375 0v-4.9219l8.8125-5.1523c0.67188-0.39063 1.082-1.1094 1.082-1.8867l-0.003906-11.574c0.003906-0.085938-0.003906-0.17188-0.015625-0.25781zm-12.066-2.9961 5.5625 3.2539-5.5625 3.2539-5.5625-3.2539zm-7.707 7.0664 5.5195 3.2266v6.5039l-5.5195-3.2266zm9.8945 9.7344v-6.5039l5.5195-3.2305 0.003906 6.5078z"/>
 </g>
</svg>
